<svg width="32" height="32" viewBox="0 0 32 32" fill="none" xmlns="http://www.w3.org/2000/svg">
<path d="M16 2.6665C8.65335 2.6665 2.66669 8.65317 2.66669 15.9998C2.66669 23.3465 8.65335 29.3332 16 29.3332C23.3467 29.3332 29.3334 23.3465 29.3334 15.9998C29.3334 8.65317 23.3467 2.6665 16 2.6665ZM22.3734 12.9332L14.8134 20.4932C14.6267 20.6798 14.3734 20.7865 14.1067 20.7865C13.84 20.7865 13.5867 20.6798 13.4 20.4932L9.62669 16.7198C9.24002 16.3332 9.24002 15.6932 9.62669 15.3065C10.0134 14.9198 10.6534 14.9198 11.04 15.3065L14.1067 18.3732L20.96 11.5198C21.3467 11.1332 21.9867 11.1332 22.3734 11.5198C22.76 11.9065 22.76 12.5332 22.3734 12.9332Z" fill="white"/>
</svg>
