<svg width="32" height="32" viewBox="0 0 32 32" fill="none" xmlns="http://www.w3.org/2000/svg">
<path d="M16 6.2002C9.62667 6.2002 4.44 11.3869 4.44 17.7602C4.44 24.1335 9.62667 29.3335 16 29.3335C22.3733 29.3335 27.56 24.1469 27.56 17.7735C27.56 11.4002 22.3733 6.2002 16 6.2002ZM17 17.3335C17 17.8802 16.5467 18.3335 16 18.3335C15.4533 18.3335 15 17.8802 15 17.3335V10.6669C15 10.1202 15.4533 9.66686 16 9.66686C16.5467 9.66686 17 10.1202 17 10.6669V17.3335Z" fill="white"/>
<path d="M19.8533 4.59984H12.1466C11.6133 4.59984 11.1866 4.17317 11.1866 3.63984C11.1866 3.1065 11.6133 2.6665 12.1466 2.6665H19.8533C20.3866 2.6665 20.8133 3.09317 20.8133 3.6265C20.8133 4.15984 20.3866 4.59984 19.8533 4.59984Z" fill="white"/>
</svg>
